<svg width="25" height="25" viewBox="0 0 25 25" fill="none" xmlns="http://www.w3.org/2000/svg">
<path fill-rule="evenodd" clip-rule="evenodd" d="M14.3891 3.44665C10.8747 -0.064904 5.66533 -0.570412 2.77639 2.32163C-0.114045 5.21218 0.391444 10.4218 3.89987 13.9348C4.83584 14.8708 5.91432 15.5863 7.05279 16.0993C7.42629 13.9288 8.49726 11.8423 10.1232 10.1293C9.58474 9.93725 9.03275 9.77525 8.45676 9.61774C5.04584 8.68173 3.35088 5.83619 2.95489 2.50014C3.28241 2.89399 3.5806 3.3071 3.87792 3.719C4.45478 4.51817 5.02833 5.31276 5.80632 5.95319C7.01657 6.94973 8.345 7.33442 9.79833 7.75527C9.85444 7.77152 9.91074 7.78782 9.96723 7.80422C10.6557 8.00372 11.2542 8.29922 11.8032 8.64423C13.2462 7.58971 14.8736 6.8877 16.5536 6.5982C16.0421 5.45968 15.3251 4.38266 14.3891 3.44665ZM8.44626 16.9334C8.66976 14.7598 9.72274 12.6343 11.4102 10.9468C14.9246 7.43521 20.134 6.9282 23.0229 9.82175C25.9134 12.7123 25.4094 17.9219 21.8965 21.4349C20.209 23.1224 18.0835 24.1755 15.9101 24.4005C15.6206 24.429 15.3341 24.444 15.0536 24.444C13.1847 24.444 11.5152 23.7885 10.2852 22.5584C8.86925 21.1439 8.21527 19.1459 8.44626 16.9334ZM13.5866 18.7169C14.7386 17.8379 15.9851 17.4899 17.3411 17.1194C20.752 16.1833 22.4454 13.3378 22.8429 10.0017C22.5182 10.3934 22.2222 10.8037 21.927 11.2128C21.3484 12.0148 20.7732 12.8121 19.9915 13.4548C18.7775 14.453 17.446 14.8383 15.9862 15.2608L15.8306 15.3058C12.4932 16.2748 10.8432 19.0964 10.4622 22.3799C10.791 21.9849 11.0922 21.5748 11.3918 21.1669C12.0421 20.2814 12.685 19.406 13.5866 18.7169Z" fill="#0E8784"/>
</svg>
